<?xml version="1.0" standalone="no"?>
<!DOCTYPE svg PUBLIC "-//W3C//DTD SVG 20010904//EN"
 "http://www.w3.org/TR/2001/REC-SVG-20010904/DTD/svg10.dtd">
<svg version="1.0" xmlns="http://www.w3.org/2000/svg"
 width="512.000000pt" height="512.000000pt" viewBox="0 0 512.000000 512.000000"
 preserveAspectRatio="xMidYMid meet">
<metadata>
Created by potrace 1.14, written by Peter Selinger 2001-2017
</metadata>
<g transform="translate(0.000000,512.000000) scale(0.100000,-0.100000)"
fill="#000000" stroke="none">
<path d="M2288 5098 c-20 -18 -27 -37 -32 -81 -3 -33 -18 -82 -36 -118 -47
-96 -60 -150 -57 -252 3 -84 7 -101 47 -192 39 -88 45 -109 45 -170 0 -59 -6
-81 -34 -140 -62 -130 -78 -243 -41 -283 11 -12 25 -23 30 -23 6 -1 16 -2 23
-3 6 -1 24 4 39 13 27 15 32 26 43 105 3 22 21 74 39 115 45 101 54 136 54
221 0 78 -21 155 -64 240 -24 47 -29 67 -28 135 0 72 4 88 37 158 38 78 57
150 57 212 0 69 -75 108 -122 63z"/>
<path d="M1893 4832 c-30 -4 -63 -48 -63 -81 0 -14 -9 -42 -20 -61 -64 -113
-73 -136 -76 -202 -4 -77 11 -128 58 -200 47 -75 48 -120 3 -197 -42 -71 -65
-137 -65 -186 0 -37 41 -85 68 -80 9 2 25 4 34 4 24 1 49 42 53 85 1 20 17 59
35 88 43 70 60 120 60 182 0 69 -13 109 -57 181 -51 82 -51 131 -1 211 54 89
74 187 45 225 -17 22 -48 36 -74 31z"/>
<path d="M2732 4823 c-32 -16 -37 -24 -47 -83 -3 -19 -13 -45 -21 -57 -53 -81
-67 -120 -72 -189 -5 -83 6 -125 57 -208 47 -78 47 -124 -1 -204 -44 -72 -58
-113 -58 -172 0 -53 17 -75 64 -84 37 -7 86 39 86 81 0 16 9 44 20 63 65 111
78 152 74 228 -3 65 -9 84 -49 157 -50 93 -56 131 -25 185 54 98 72 144 75
194 3 45 0 57 -18 74 -33 29 -50 32 -85 15z"/>
<path d="M2147 3624 c-1 -1 -72 -4 -157 -8 -85 -4 -173 -8 -195 -10 -105 -10
-182 -17 -205 -21 -14 -2 -59 -9 -100 -14 -79 -11 -86 -12 -215 -36 -122 -23
-228 -49 -345 -87 -199 -63 -345 -151 -405 -243 -19 -28 -20 -49 -20 -290 0
-326 8 -435 51 -660 14 -71 27 -142 30 -158 3 -15 21 -81 39 -147 95 -332 254
-653 440 -885 66 -82 75 -73 -110 -105 -406 -70 -711 -183 -834 -310 -36 -37
-43 -52 -55 -116 -3 -12 9 -44 25 -72 47 -84 173 -161 374 -232 87 -30 326
-94 395 -104 19 -3 46 -8 60 -11 116 -25 464 -71 615 -81 44 -3 91 -7 105 -9
151 -26 1063 -26 1310 0 19 2 79 6 133 10 54 3 106 8 115 10 21 4 92 13 157
20 28 3 64 7 80 9 80 11 132 19 150 22 11 2 34 7 50 9 197 35 477 106 560 144
11 5 35 15 54 23 121 47 232 125 270 190 63 110 -20 224 -236 321 -160 72
-378 132 -656 181 l-178 32 52 64 c89 113 86 110 128 110 34 0 107 8 226 25
179 25 425 106 584 192 208 112 375 283 480 491 80 158 140 385 135 513 -12
312 -300 587 -599 572 -115 -5 -276 -57 -355 -113 l-30 -21 0 154 c0 91 -5
168 -12 188 -23 70 -111 146 -233 205 -139 65 -386 137 -600 173 -33 6 -71 12
-85 15 -14 2 -52 8 -85 11 -33 4 -71 9 -85 11 -14 2 -55 6 -91 9 -36 3 -80 7
-98 10 -84 10 -624 27 -634 19z m2451 -834 c121 -46 223 -141 264 -245 34 -87
38 -111 34 -204 -5 -99 -22 -169 -70 -273 -14 -31 -26 -59 -26 -63 0 -8 -80
-134 -114 -180 -84 -111 -259 -258 -386 -323 -127 -66 -315 -131 -425 -148
-22 -3 -58 -10 -80 -15 -22 -4 -54 -9 -72 -9 l-32 0 58 118 c157 314 254 643
296 1002 3 30 9 73 11 95 7 46 57 120 114 165 109 86 311 124 428 80z"/>
</g>
</svg>
